<?xml version="1.0" encoding="UTF-8" standalone="no"?>
<svg
   xmlns:dc="http://purl.org/dc/elements/1.1/"
   xmlns:cc="http://creativecommons.org/ns#"
   xmlns:rdf="http://www.w3.org/1999/02/22-rdf-syntax-ns#"
   xmlns:svg="http://www.w3.org/2000/svg"
   xmlns="http://www.w3.org/2000/svg"
   xmlns:sodipodi="http://sodipodi.sourceforge.net/DTD/sodipodi-0.dtd"
   xmlns:inkscape="http://www.inkscape.org/namespaces/inkscape"
   version="1.1"
   id="Layer_1"
   x="0"
   y="0"
   xml:space="preserve"
   viewBox="0 0 238.5 32.599998"
   sodipodi:docname="lewebsimple.svg"
   inkscape:version="0.92.3 (2405546, 2018-03-11)"><metadata
   id="metadata22"><rdf:RDF><cc:Work
       rdf:about=""><dc:format>image/svg+xml</dc:format><dc:type
         rdf:resource="http://purl.org/dc/dcmitype/StillImage" /></cc:Work></rdf:RDF></metadata><defs
   id="defs20" /><sodipodi:namedview
   pagecolor="#ffffff"
   bordercolor="#666666"
   borderopacity="1"
   objecttolerance="10"
   gridtolerance="10"
   guidetolerance="10"
   inkscape:pageopacity="0"
   inkscape:pageshadow="2"
   inkscape:window-width="856"
   inkscape:window-height="480"
   id="namedview18"
   showgrid="false"
   inkscape:zoom="1.5513627"
   inkscape:cx="119.25"
   inkscape:cy="16.299999"
   inkscape:window-x="0"
   inkscape:window-y="40"
   inkscape:window-maximized="0"
   inkscape:current-layer="Layer_1" />
  <g
   id="g4256"
   transform="translate(-.7 -10.4)"
   style="fill:#ffffff">
    <path
   class="st0"
   id="polygon53"
   fill="#4f4f51"
   d="M0.7 10.4L8.6 10.4 8.6 31.5 10.7 31.5 10.7 36 0.7 36 0.7 36 0.7 31.5 2.2 31.5 2.2 14.8 0.7 14.8z"
   style="fill:#ffffff" />
    <path
   class="st0"
   d="m 23.3,25.8 c 0,-1.3 -0.3,-2.7 -2.5,-2.7 -2.1,0 -2.6,1.9 -2.6,2.7 l 5.1,0 0,0 z m 5.9,7.9 c -2.5,2.2 -5.3,3 -8.8,3 -4.2,0 -9,-2.7 -9,-9.3 0,-5.6 4,-8.9 9.2,-8.9 4.1,0 7.2,2.1 8.2,5 0.4,1.2 0.8,3.8 0.1,5.8 l -10.9,0 c 0.2,0.9 0.6,2.8 3.5,2.8 1.2,0 2.9,-0.1 4.8,-1.6 l 2.9,3.2 0,0 z"
   id="path55"
   fill="#4f4f51"
   style="fill:#ffffff" />
    <path
   class="st0"
   d="m 41.8,30.8 c 0.1,-1.4 0.4,-4.6 1.4,-8 l 1.1,-3.8 6.3,0 1.3,4.4 c 0.8,2.6 1.3,6.2 1.5,7.4 l 0.1,0 c 0.1,-1.1 0.4,-3.6 0.9,-5.4 l 0.6,-2 -1.4,0 0,-4.4 8.3,0 0,4.4 -1.4,0 -4,12.6 -7.2,0 -2.4,-7.7 -2.5,7.7 -7,0 -3.9,-12.6 -1.5,0 0,-4.4 9.2,0 0,4.4 -1.2,0 0.8,2.5 c 0.5,1.6 0.8,3.9 1,4.9 l 0,0 0,0 z"
   id="path57"
   fill="#4f4f51"
   style="fill:#ffffff" />
    <path
   class="st0"
   d="m 73.9,25.8 c 0,-1.3 -0.3,-2.7 -2.5,-2.7 -2.1,0 -2.6,1.9 -2.6,2.7 l 5.1,0 0,0 z m 6,7.9 c -2.5,2.2 -5.3,3 -8.8,3 -4.2,0 -9,-2.7 -9,-9.3 0,-5.6 4,-8.9 9.2,-8.9 4.1,0 7.2,2.1 8.2,5 0.4,1.2 0.8,3.8 0.1,5.8 l -10.9,0 c 0.2,0.9 0.6,2.8 3.5,2.8 1.2,0 2.9,-0.1 4.8,-1.6 l 2.9,3.2 0,0 z"
   id="path59"
   fill="#4f4f51"
   style="fill:#ffffff" />
    <path
   class="st0"
   d="m 92.1,23.5 c -1.3,0 -2.6,1.7 -2.4,4.4 0,2.3 1.2,4.1 2.5,4.1 1.4,0 2.4,-1.7 2.4,-4.3 -0.1,-2.1 -1,-4.2 -2.5,-4.2 l 0,0 z m -10.7,8.1 1.4,0 0,-16.7 -1.4,0 0,-4.5 8.3,0 0,9.9 c 0.8,-0.9 2.8,-1.6 4.5,-1.6 5.2,0 8,4.4 7.9,8.9 -0.1,5.3 -3.1,8.8 -7.9,8.8 -2.6,0 -3.6,-0.7 -4.5,-1.5 l -0.6,1.1 -7.7,0 0,-4.4 0,0 z"
   id="path61"
   fill="#4f4f51"
   style="fill:#ffffff" />
    <path
   class="st0"
   d="m 105.7,29.9 4.6,0 c 0,1.8 2.6,2.3 3.6,2.3 0.7,0 1.5,-0.2 1.5,-1.2 0,-1 -2.6,-1.2 -5,-2 -2.3,-0.8 -4.5,-2.3 -4.5,-5.5 0,-3.5 3.6,-5 6,-5 2.3,0 4.4,1.2 5.1,2.7 l 0.3,-2.3 4.2,0 0,6.1 -4.4,0 c 0,-1.4 -1.8,-2.6 -3.5,-2.6 -0.7,0 -1.3,0.4 -1.3,1.2 0,1 2,1.4 4.2,2.1 2.6,0.9 5.5,1.9 5.5,5.5 0,3.2 -3,5.1 -6.4,5.1 -2.5,0 -4.4,-1.2 -5.2,-2.5 l -0.3,2.1 -4.3,0 0,-6 -0.1,0 z"
   id="path63"
   fill="#4f4f51"
   style="fill:#ffffff" />
    <path
   class="st0"
   d="m 128,10.5 c 2.4,0 3.8,1.9 3.8,3.5 0,1.9 -1.3,3.4 -3.8,3.4 -2.2,0 -3.7,-1.8 -3.7,-3.4 0,-1.6 1.3,-3.5 3.7,-3.5 l 0,0 z m -4.6,25.5 0,-4.5 1.4,0 0,-8.2 -1.4,0 0,-4.4 7.9,0 0,12.6 1.6,0 0,4.5 -9.5,0 0,0 z"
   id="path65"
   fill="#4f4f51"
   style="fill:#ffffff" />
    <path
   class="st0"
   d="m 134.6,36 0,-4.5 1.4,0 0,-8.1 -1.4,0 0,-4.4 6.5,0 0.8,2 c 0.5,-0.6 2.1,-2.5 4.3,-2.5 3.5,0 4.5,1.6 5.1,2.5 1.1,-1.2 2.7,-2.5 5,-2.5 5.5,0 6.4,4 6.4,8.2 l 0,4.7 1.7,0 0,4.6 -8.7,0 0,-8.4 c 0,-1.6 0.3,-4.2 -1.3,-4.2 -1.5,0 -1.8,1 -1.8,2.5 l 0,5.5 2,0 0,4.6 -8.8,0 0,-8.7 c 0,-2.8 -0.1,-3.9 -1.4,-3.9 -1.1,0 -1.5,0.6 -1.5,2 l 0,6.1 2,0 0,4.5 -10.3,0 0,0 z"
   id="path67"
   fill="#4f4f51"
   style="fill:#ffffff" />
    <path
   class="st0"
   d="m 176.4,23.5 c -1.3,0 -2.6,1.7 -2.4,4.4 0,2.3 1.2,4.1 2.5,4.1 1.4,0 2.4,-1.7 2.4,-4.3 0,-2.1 -1,-4.2 -2.5,-4.2 l 0,0 z m -9.3,15 0,-15 -1.4,0 0,-4.5 7.8,0 0.6,1.2 c 0.6,-0.5 2.1,-1.5 4.1,-1.5 5.3,0 8.1,4.1 8.1,8.9 0,5.4 -3.4,8.8 -7.8,8.8 -2.8,0 -4.2,-1.1 -4.4,-1.3 l 0,3.5 1.8,0 0,4.4 -10.2,0 0,-4.5 1.4,0 0,0 z"
   id="path69"
   fill="#4f4f51"
   style="fill:#ffffff" />
    <path
   class="st0"
   id="polygon71"
   fill="#4f4f51"
   d="M187.5 10.4L195.4 10.4 195.4 31.5 197.4 31.5 197.4 36 187.4 36 187.4 36 187.4 31.5 188.9 31.5 188.9 14.8 187.5 14.8z"
   style="fill:#ffffff" />
    <path
   class="st0"
   d="m 210,25.8 c 0,-1.3 -0.3,-2.7 -2.5,-2.7 -2.1,0 -2.6,1.9 -2.6,2.7 l 5.1,0 0,0 z m 5.9,7.9 c -2.5,2.2 -5.3,3 -8.8,3 -4.2,0 -9,-2.7 -9,-9.3 0,-5.6 4,-8.9 9.2,-8.9 4.1,0 7.2,2.1 8.2,5 0.4,1.2 0.8,3.8 0.1,5.8 l -10.8,0 c 0.2,0.9 0.6,2.8 3.5,2.8 1.2,0 2.9,-0.1 4.8,-1.6 l 2.8,3.2 0,0 z"
   id="path73"
   fill="#4f4f51"
   style="fill:#ffffff" />
    <path
   class="st0"
   d="m 218.6,15.9 c 1.2,0 1.9,1 1.9,1.9 0,1 -0.7,1.8 -1.9,1.8 -1.1,0 -1.9,-0.9 -1.9,-1.8 0,-0.9 0.6,-1.9 1.9,-1.9 l 0,0 z"
   id="path75"
   fill="#4f4f51"
   style="fill:#ffffff" />
    <path
   class="st0"
   d="m 226.7,15 c 0,-0.8 -0.3,-1.7 -1,-1.7 -1,0 -1.5,1 -1.5,2.1 0,1.1 0.6,1.9 1.7,1.9 0.9,0 1.5,-0.3 2,-0.9 l 1.5,1.7 c -0.8,0.8 -2.3,1.7 -4,1.7 -2.4,0 -4.5,-1.5 -4.5,-4.4 0,-2.9 1.9,-4.2 4.1,-4.2 1.1,0 1.8,0.6 2.1,0.9 l 0.3,-0.8 2,0 0,3.7 -2.7,0 0,0 z"
   id="path77"
   fill="#4f4f51"
   style="fill:#ffffff" />
    <path
   class="st0"
   d="m 234.8,16.5 c -0.1,-0.1 -0.3,-0.5 -1,-0.5 -0.7,0 -1,0.4 -1,0.9 0,0.5 0.4,0.8 0.9,0.8 0.5,0 0.9,-0.3 1.1,-0.5 l 0,-0.7 0,0 z m -4.7,-4.6 c 0.7,-0.4 2.1,-1.2 3.6,-1.2 2,0 4.5,0.7 4.5,3.4 l 0,3.2 1,0 0,2.1 -3.5,0 -0.4,-0.7 c -0.6,0.8 -1.6,1.1 -2.2,1.1 -1.6,0 -3.3,-0.8 -3.3,-2.8 0,-1.9 1.6,-3 3.4,-3 1,0 1.6,0.5 1.6,0.6 l 0,-0.6 c 0,-0.7 -0.7,-0.9 -1.6,-0.9 -1,0 -1.8,0.4 -2.5,0.8 l -0.6,-2 0,0 z"
   id="path79"
   fill="#4f4f51"
   style="fill:#ffffff" />
  </g>
</svg>